HIERARCHY
ROOT Hips
{
	OFFSET 0.00000 0.00000 0.00000
	CHANNELS 6 Xposition Yposition Zposition Zrotation Yrotation Xrotation 
	JOINT LHipJoint
	{
		OFFSET 0 0 0
		CHANNELS 3 Zrotation Yrotation Xrotation
		JOINT LeftHip
		{
			OFFSET 1.84395 -1.68683 0.74144
			CHANNELS 3 Zrotation Yrotation Xrotation
			JOINT LeftKnee
			{
				OFFSET 2.27037 -6.23779 0.00000
				CHANNELS 3 Zrotation Yrotation Xrotation
				JOINT LeftAnkle
				{
					OFFSET 2.56918 -7.05877 0.00000
					CHANNELS 3 Zrotation Yrotation Xrotation
					JOINT LeftToe
					{
						OFFSET 0.22276 -0.61202 1.71784
						CHANNELS 3 Zrotation Yrotation Xrotation
						End Site
						{
							OFFSET 0.00000 -0.00000 0.91613
						}
					}
				}
			}
		}
	}
	JOINT RHipJoint
	{
		OFFSET 0 0 0
		CHANNELS 3 Zrotation Yrotation Xrotation
		JOINT RightHip
		{
			OFFSET -1.76833 -1.68684 0.74144
			CHANNELS 3 Zrotation Yrotation Xrotation
			JOINT RightKnee
			{
				OFFSET -2.49360 -6.85110 0.00000
				CHANNELS 3 Zrotation Yrotation Xrotation
				JOINT RightAnkle
				{
					OFFSET -2.55538 -7.02085 0.00000
					CHANNELS 3 Zrotation Yrotation Xrotation
					JOINT RightToe
					{
						OFFSET -0.21516 -0.59115 1.68050
						CHANNELS 3 Zrotation Yrotation Xrotation
						End Site
						{
							OFFSET -0.00000 -0.00000 0.89604
						}
					}
				}
			}
		}
	}
	JOINT lowerback
	{
		OFFSET 0 0 0
		CHANNELS 3 Zrotation Yrotation Xrotation
		JOINT Chest
		{
			OFFSET 0.06382 1.72312 -0.19613
			CHANNELS 3 Zrotation Yrotation Xrotation
			JOINT Chest2
			{
				OFFSET -0.00055 1.73507 0.23859
				CHANNELS 3 Zrotation Yrotation Xrotation
				JOINT lowerneck
				{
					OFFSET 0 0 0
					CHANNELS 3 Zrotation Yrotation Xrotation
					JOINT Neck
					{
						OFFSET 0.03638 1.65562 0.09633
						CHANNELS 3 Zrotation Yrotation Xrotation
						JOINT Head
						{
							OFFSET 0.06388 1.62807 -0.32386
							CHANNELS 3 Zrotation Yrotation Xrotation
							End Site
							{
								OFFSET 0.00995 1.67644 -0.12021
							}
						}
					}
				}
				JOINT LeftCollar
				{
					OFFSET 0 0 0
					CHANNELS 3 Zrotation Yrotation Xrotation
					JOINT LeftShoulder
					{
						OFFSET 3.09648 1.42991 0.28122
CHANNELS 3 Zrotation Xrotation Yrotation
						JOINT LeftElbow
						{
OFFSET 0 -5.118780 -0.000000
CHANNELS 3 Zrotation Xrotation Yrotation
							JOINT LeftWrist
							{
OFFSET 0 -3.599710 0.000000
CHANNELS 3 Zrotation Xrotation Yrotation
								JOINT lhand
								{
									OFFSET 0 0 0
CHANNELS 3 Zrotation Xrotation Yrotation
									JOINT LFingers
									{
OFFSET 0 -0.628770 0.000000
CHANNELS 3 Zrotation Xrotation Yrotation
										End Site
										{
OFFSET 0 -0.506930 0.000000
										}
									}
								}
								JOINT LThumb
								{
OFFSET 0 0.000000 0.000000
CHANNELS 3 Zrotation Xrotation Yrotation
									End Site
									{
OFFSET 0 -0.514670 0.514670
									}
								}
							}
						}
					}
				}
				JOINT RightCollar
				{
					OFFSET 0 0 0
					CHANNELS 3 Zrotation Yrotation Xrotation
					JOINT RightShoulder
					{
						OFFSET -3.33565 1.14597 0.05047
CHANNELS 3 Zrotation Xrotation Yrotation
						JOINT RightElbow
						{
OFFSET 0 -5.490200 0.000000
CHANNELS 3 Zrotation Xrotation Yrotation
							JOINT RightWrist
							{
OFFSET 0 -3.206590 -0.000000
CHANNELS 3 Zrotation Xrotation Yrotation
								JOINT rhand
								{
									OFFSET 0 0 0
CHANNELS 3 Zrotation Xrotation Yrotation
									JOINT RFingers
									{
OFFSET 0 -0.691880 0.000000
CHANNELS 3 Zrotation Xrotation Yrotation
										End Site
										{
OFFSET 0 -0.557810 0.000000
										}
									}
								}
								JOINT RThumb
								{
OFFSET 0 0.000000 0.000000
CHANNELS 3 Zrotation Xrotation Yrotation
									End Site
									{
OFFSET 0 -0.566330 0.566330
									}
								}
							}
						}
					}
				}
			}
		}
	}
}
MOTION
Frames: 4
Frame Time: 0.008333333333333333
0.734900 17.430800 9.052600 -9.944100 -2.128400 9.755000 0.000000 0.000000 0.000000 -17.002600 -39.972100 22.133700 0.059800 -1.577200 -4.338700 -5.317200 42.537500 -41.927900 0.520800 4.625200 12.842600 0.000000 0.000000 0.000000 28.610100 27.273700 5.851100 -0.011000 -0.677200 1.861100 1.162300 -21.420000 -19.414100 -0.001400 0.244500 -0.671900 6.331800 1.273900 -0.452600 1.904000 2.214800 -10.075800 -1.672600 0.631900 -10.342400 -5.081500 -9.710500 -4.352900 6.759300 -14.455500 21.489000 1.772300 -6.748900 8.240700 0.000000 0.000000 0.000000 -3.255500 10.657600 22.176000 12.078600 -19.922500 2.129000 17.287500 22.403100 13.811700 0.000000 0.000000 0.000000 -7.125000 0.000000 0.000000 -6.927000 15.612200 -4.843200 0.000000 0.000000 0.000000 4.599000 10.608100 -13.988500 -13.153300 -21.511400 -2.509200 4.758300 46.979700 31.498500 0.000000 0.000000 0.000000 7.125000 0.000000 -0.000000 39.476200 56.827400 -12.803100
0.734072 17.430955 9.052057 -9.805354 -2.111850 9.820273 0.000000 0.000000 0.000000 -17.251805 -40.208803 22.228298 0.059223 -1.570801 -4.320834 -5.270154 42.605405 -42.310521 0.538490 4.701886 13.060112 0.000000 0.000000 0.000000 28.469641 27.451331 5.923445 -0.009972 -0.643843 1.769244 1.176862 -21.564844 -19.579969 -0.018926 -0.878643 2.415045 6.094628 1.046216 -0.525655 2.287989 1.904530 -9.817929 -1.105384 0.532935 -10.044358 -6.026980 -9.555014 -5.488903 6.896731 -14.143252 21.847853 1.925939 -6.614798 8.628924 0.000000 0.000000 0.000000 -4.115085 10.094701 23.131130 12.117062 -19.979996 2.142123 17.299202 22.353383 13.816757 0.000000 0.000000 0.000000 -7.125000 0.000000 0.000000 -6.919140 15.605860 -4.838546 0.000000 0.000000 0.000000 3.682603 9.948267 -13.265642 -13.004221 -21.293346 -2.454848 4.305684 47.179208 31.725620 0.000000 0.000000 0.000000 7.125000 0.000000 0.000000 39.270328 57.101160 -12.992839
0.729228 17.435801 9.056090 -9.457566 -2.183326 10.034298 0.000000 0.000000 0.000000 -17.672080 -40.647501 22.237197 0.058568 -1.561188 -4.294502 -5.246531 42.778550 -42.849918 0.581930 4.884635 13.579791 0.000000 0.000000 0.000000 27.660263 26.821038 4.926630 -0.015907 -0.804826 2.212111 1.034327 -20.648268 -19.316644 -0.083122 -1.855713 5.107324 5.516151 0.801921 -0.799747 2.641258 1.536701 -9.570925 -0.379128 0.431431 -9.638394 -6.632236 -9.411702 -6.878113 6.656941 -13.778272 22.349901 1.901716 -6.457021 9.057021 0.000000 0.000000 0.000000 -4.974918 9.451578 23.880185 12.171598 -20.061523 2.160799 17.562370 22.380262 12.920502 0.000000 0.000000 0.000000 -7.125000 0.000000 0.000000 -6.724593 16.510451 -4.568439 0.000000 0.000000 0.000000 2.746445 9.104278 -12.527488 -12.824449 -21.029393 -2.390004 4.275796 46.694656 31.931010 0.000000 0.000000 0.000000 7.125000 0.000000 0.000000 39.436666 57.268524 -13.227519
0.719198 17.449168 9.085664 -9.157920 -2.026675 10.581241 0.000000 0.000000 0.000000 -17.961244 -41.510662 22.161110 0.059368 -1.572720 -4.326137 -5.320501 43.170385 -43.516650 0.604513 4.976951 13.842688 0.000000 0.000000 0.000000 26.536868 25.110469 2.787036 -0.030049 -1.119315 3.077182 0.757985 -18.694157 -18.626030 -0.054096 -1.501224 4.129037 4.953331 0.533556 -1.874183 2.955592 1.080377 -9.410837 0.304193 0.284398 -8.851316 -7.167088 -9.261989 -7.859826 6.581348 -13.438445 22.676661 1.946260 -6.310345 9.361317 0.000000 0.000000 0.000000 -5.746500 9.009370 23.950349 12.351147 -20.329171 2.222821 17.893105 21.869414 10.890744 0.000000 0.000000 0.000000 -7.125000 0.000000 0.000000 -6.475486 18.590850 -4.099429 0.000000 0.000000 0.000000 1.888705 8.298925 -11.702186 -12.594820 -20.690629 -2.308185 4.633707 45.408862 32.649463 0.000000 0.000000 0.000000 7.125000 0.000000 0.000000 40.461621 57.751682 -14.144801
